#Comment line ignore any data following # character 
#Hierarchical Translation and Rotation (.htr) file 
[Header]	
#Header keywords are followed by a single value 
FileType HTR		#Single word string
DataType HTRS		#Translation followed by rotation and scale data
FileVersion 1		#integer
NumSegments 25		#integer
NumFrames 4		#integer
DataFrameRate 30		#integer, data frame rate in this file
EulerRotationOrder ZYX
CalibrationUnits mm
RotationUnits Degrees
GlobalAxisofGravity Y
BoneLengthAxis Y
ScaleFactor 1.00
[SegmentNames&Hierarchy]
#CHILD	PARENT
BN_Tick_Root GLOBAL
BN_Torso BN_Tick_Root
BN_L_Leg_Front01 BN_Torso
BN_L_Leg_Rear01 BN_Torso
BN_MetalTop BN_Torso
BN_Neck BN_Torso
BN_R_Leg_Front01 BN_Torso
BN_R_Leg_Rear01 BN_Torso
BN_Sack BN_Torso
BN_L_Leg_Front02 BN_L_Leg_Front01
BN_L_Leg_Front03 BN_L_Leg_Front02
BN_L_Leg_Rear02 BN_L_Leg_Rear01
BN_L_Leg_Rear03 BN_L_Leg_Rear02
BN_Head BN_Neck
BN_Needle BN_Head
BN_R_Leg_Front02 BN_R_Leg_Front01
BN_R_Leg_Front03 BN_R_Leg_Front02
BN_R_Leg_Rear02 BN_R_Leg_Rear01
BN_R_Leg_Rear03 BN_R_Leg_Rear02
BN_SackDef01 BN_Sack
BN_SackDef02 BN_Sack
BN_SackDef03 BN_Sack
BN_SackDef04 BN_Sack
BN_SackDef05 BN_Sack
BN_SackDef06 BN_Sack
[BasePosition]
#SegmentName Tx, Ty, Tz, Rx, Ry, Rz, BoneLength
BN_Tick_Root 0.000000 0.000000 0.000000 -90.000000 0.000000 0.000000 10.000000 
BN_Torso 0.000000 0.000000 0.000000 0.000000 0.000000 0.000000 10.000000 
BN_L_Leg_Front01 0.000000 0.000000 0.000000 0.000000 0.000000 0.000000 10.000000 
BN_L_Leg_Rear01 0.000000 0.000000 0.000000 0.000000 0.000000 0.000000 10.000000 
BN_MetalTop 0.000000 0.000000 0.000000 0.000000 0.000000 0.000000 10.000000 
BN_Neck 0.000000 0.000000 0.000000 0.000000 0.000000 0.000000 10.000000 
BN_R_Leg_Front01 0.000000 0.000000 0.000000 0.000000 0.000000 0.000000 10.000000 
BN_R_Leg_Rear01 0.000000 0.000000 0.000000 0.000000 0.000000 0.000000 10.000000 
BN_Sack 0.000000 0.000000 0.000000 0.000000 0.000000 0.000000 10.000000 
BN_L_Leg_Front02 0.000000 0.000000 0.000000 0.000000 0.000000 0.000000 10.000000 
BN_L_Leg_Front03 0.000000 0.000000 0.000000 0.000000 0.000000 0.000000 10.000000 
BN_L_Leg_Rear02 0.000000 0.000000 0.000000 0.000000 0.000000 0.000000 10.000000 
BN_L_Leg_Rear03 0.000000 0.000000 0.000000 0.000000 0.000000 0.000000 10.000000 
BN_Head 0.000000 0.000000 0.000000 0.000000 0.000000 0.000000 10.000000 
BN_Needle 0.000000 0.000000 0.000000 0.000000 0.000000 0.000000 10.000000 
BN_R_Leg_Front02 0.000000 0.000000 0.000000 0.000000 0.000000 0.000000 10.000000 
BN_R_Leg_Front03 0.000000 0.000000 0.000000 0.000000 0.000000 0.000000 10.000000 
BN_R_Leg_Rear02 0.000000 0.000000 0.000000 0.000000 0.000000 0.000000 10.000000 
BN_R_Leg_Rear03 0.000000 0.000000 0.000000 0.000000 0.000000 0.000000 10.000000 
BN_SackDef01 0.000000 0.000000 0.000000 0.000000 0.000000 0.000000 10.000000 
BN_SackDef02 0.000000 0.000000 0.000000 0.000000 0.000000 0.000000 10.000000 
BN_SackDef03 0.000000 0.000000 0.000000 0.000000 0.000000 0.000000 10.000000 
BN_SackDef04 0.000000 0.000000 0.000000 0.000000 0.000000 0.000000 10.000000 
BN_SackDef05 0.000000 0.000000 0.000000 0.000000 0.000000 0.000000 10.000000 
BN_SackDef06 0.000000 0.000000 0.000000 0.000000 0.000000 0.000000 10.000000 
#Beginning of Data. Separated by tabs
#Fr	Tx	Ty	Tz	Rx	Ry	Rz	SF
[BN_Tick_Root]
751 0.000000 0.000000 0.000000 0.000000 0.000000 -0.000020 0.000000
752 0.000000 0.000000 0.000000 0.000000 0.000000 -0.000020 0.000000
753 0.000000 0.000000 0.000000 0.000000 0.000000 -0.000020 0.000000
754 0.000000 0.000000 0.000000 0.000000 0.000000 -0.000020 0.000000
[BN_Torso]
751 2566.099609 -2054.812500 -1596.018188 -18.992065 -1.150496 -112.346802 3654.366455
752 2551.233154 -2043.222656 -1597.680908 -19.026831 -1.184190 -111.871231 3638.149902
753 2536.365479 -2031.632202 -1599.343872 -19.061872 -1.217596 -111.395592 3621.958008
754 2521.493164 -2020.037842 -1601.006592 -19.097197 -1.250710 -110.919975 3605.787354
[BN_L_Leg_Front01]
751 -68.477791 10.734189 -26.804373 -35.263462 34.209255 142.607025 74.316254
752 -68.477791 10.734189 -26.804373 -36.397144 34.649540 142.474411 74.316254
753 -68.477791 10.734189 -26.804373 -37.538315 35.087631 142.330444 74.316254
754 -68.477791 10.734189 -26.804373 -38.686821 35.523197 142.175003 74.316254
[BN_L_Leg_Rear01]
751 -72.133743 -73.994843 -18.268616 143.967957 32.441944 -125.843956 104.939293
752 -72.133743 -73.994843 -18.268616 144.009430 32.751854 -125.822716 104.939293
753 -72.133743 -73.994843 -18.268616 144.051193 33.061771 -125.801147 104.939293
754 -72.133743 -73.994843 -18.268616 144.093231 33.371639 -125.779205 104.939293
[BN_MetalTop]
751 0.000008 13.737477 26.403606 89.012573 -12.540809 -89.101189 29.763546
752 0.000008 13.737477 26.403606 89.048569 -12.617118 -89.220802 29.763546
753 0.000008 13.737477 26.403606 89.084732 -12.693344 -89.340515 29.763546
754 0.000008 13.737477 26.403606 89.121071 -12.769500 -89.460289 29.763546
[BN_Neck]
751 0.000014 95.233284 10.002091 -89.999672 -65.297531 89.999657 95.757088
752 0.000014 95.233284 10.002091 -89.999672 -65.297531 89.999657 95.757088
753 0.000014 95.233284 10.002091 -89.999672 -65.297531 89.999657 95.757088
754 0.000014 95.233284 10.002091 -89.999672 -65.297531 89.999657 95.757088
[BN_R_Leg_Front01]
751 68.477768 10.734107 -26.804314 26.919689 19.027231 -17.990784 74.316193
752 68.477768 10.734107 -26.804314 27.523733 19.605818 -17.293465 74.316193
753 68.477768 10.734107 -26.804314 28.137590 20.177526 -16.586958 74.316193
754 68.477768 10.734107 -26.804314 28.761217 20.742033 -15.871323 74.316193
[BN_R_Leg_Rear01]
751 72.133751 -73.994873 -18.268644 -116.583420 13.170805 -17.422386 104.939331
752 72.133751 -73.994873 -18.268644 -116.767044 13.835049 -17.792673 104.939331
753 72.133751 -73.994873 -18.268644 -116.955643 14.498156 -18.166265 104.939331
754 72.133751 -73.994873 -18.268644 -117.149246 15.159953 -18.543201 104.939331
[BN_Sack]
751 -0.000000 -78.024918 33.657791 88.712448 -5.728324 -87.519714 84.974907
752 -0.000000 -78.024918 33.657791 88.737541 -5.807441 -87.660469 84.974907
753 -0.000000 -78.024918 33.657791 88.762817 -5.886494 -87.801285 84.974907
754 -0.000000 -78.024918 33.657791 88.788300 -5.965471 -87.942139 84.974907
[BN_L_Leg_Front02]
751 142.805023 -0.000015 -0.000104 -32.174461 -33.982037 -97.332260 142.805023
752 142.805023 -0.000015 -0.000104 -31.137173 -33.037193 -98.266098 142.805023
753 142.805023 -0.000015 -0.000104 -30.128534 -32.078022 -99.170280 142.805023
754 142.805023 -0.000015 -0.000104 -29.147902 -31.105570 -100.045464 142.805023
[BN_L_Leg_Front03]
751 124.143021 -0.000045 0.000007 0.353456 -0.428065 72.968193 124.143021
752 124.143021 -0.000045 0.000007 0.353081 -0.429733 73.599579 124.143021
753 124.143021 -0.000045 0.000007 0.352688 -0.431397 74.231041 124.143021
754 124.143021 -0.000045 0.000007 0.352276 -0.433056 74.862442 124.143021
[BN_L_Leg_Rear02]
751 139.939041 0.000075 -0.000022 -33.107742 -6.649334 79.448456 139.939041
752 139.939041 0.000075 -0.000022 -33.061546 -6.219584 79.451195 139.939041
753 139.939041 0.000075 -0.000022 -33.015469 -5.789660 79.454201 139.939041
754 139.939041 0.000075 -0.000022 -32.990257 -5.319296 79.440109 139.939041
[BN_L_Leg_Rear03]
751 142.839615 0.000179 -0.000060 0.000323 -0.002325 -105.819588 142.839615
752 142.839615 0.000179 -0.000060 0.000327 -0.002325 -105.994148 142.839615
753 142.839615 0.000179 -0.000060 0.000330 -0.002324 -106.168732 142.839615
754 142.839615 0.000179 -0.000060 0.000334 -0.002324 -106.343292 142.839615
[BN_Head]
751 57.062447 -0.000030 0.000000 -0.023203 3.049138 4.322757 57.062447
752 57.062447 -0.000030 0.000000 -0.029853 3.136305 4.105922 57.062447
753 57.062447 -0.000030 0.000000 -0.036835 3.223459 3.889029 57.062447
754 57.062447 -0.000030 0.000000 -0.044148 3.310588 3.672102 57.062447
[BN_Needle]
751 33.915489 69.677582 -0.000227 0.000003 0.000030 87.896805 77.493393
752 33.915489 69.677582 -0.000226 0.000003 0.000030 87.896805 77.493393
753 33.915485 69.677582 -0.000225 0.000003 0.000030 87.896805 77.493393
754 33.915485 69.677582 -0.000224 0.000003 0.000030 87.896805 77.493393
[BN_R_Leg_Front02]
751 142.804947 -0.000060 0.000060 76.142906 -22.018013 127.022942 142.804947
752 142.804947 -0.000060 0.000060 75.602928 -21.977585 127.204956 142.804947
753 142.804947 -0.000060 0.000060 74.959633 -21.928003 127.461060 142.804947
754 142.804947 -0.000060 0.000060 74.316811 -21.875755 127.716438 142.804947
[BN_R_Leg_Front03]
751 124.143005 -0.000060 -0.000156 -0.351328 -0.308293 -136.558167 124.143005
752 124.143005 -0.000060 -0.000156 -0.351244 -0.306907 -136.779495 124.143005
753 124.143005 -0.000060 -0.000156 -0.351166 -0.305520 -137.000870 124.143005
754 124.143005 -0.000060 -0.000156 -0.351093 -0.304133 -137.222198 124.143005
[BN_R_Leg_Rear02]
751 139.939011 -0.000149 0.000015 62.090717 38.360836 -8.358201 139.939011
752 139.939011 -0.000149 0.000015 62.125843 38.226551 -8.661444 139.939011
753 139.939011 -0.000149 0.000015 62.161812 38.092403 -8.964261 139.939011
754 139.939011 -0.000149 0.000015 62.198605 37.958408 -9.266630 139.939011
[BN_R_Leg_Rear03]
751 142.839417 0.000075 0.000119 0.002167 -0.000902 135.222733 142.839417
752 142.839417 0.000075 0.000119 0.002165 -0.000906 135.427002 142.839417
753 142.839417 0.000075 0.000119 0.002164 -0.000910 135.631287 142.839417
754 142.839417 0.000075 0.000119 0.002162 -0.000914 135.835556 142.839417
[BN_SackDef01]
751 249.782394 -3.760681 42.949406 -128.408218 -44.374973 -11.740845 253.475906
752 249.782394 -3.760681 42.949406 -128.408218 -44.374973 -11.740845 253.475906
753 249.782394 -3.760681 42.949406 -128.408218 -44.374973 -11.740845 253.475906
754 249.782394 -3.760681 42.949406 -128.408218 -44.374973 -11.740845 253.475906
[BN_SackDef02]
751 138.789963 -62.131645 45.674377 32.077126 -27.375721 -88.781525 158.773880
752 138.789963 -62.131645 45.674377 32.077126 -27.375721 -88.781525 158.773880
753 138.789963 -62.131645 45.674377 32.077126 -27.375721 -88.781525 158.773880
754 138.789963 -62.131645 45.674377 32.077126 -27.375721 -88.781525 158.773880
[BN_SackDef03]
751 249.782242 -3.760534 -42.949703 18.144459 44.375008 -11.740894 253.475815
752 249.782242 -3.760534 -42.949703 18.144459 44.375008 -11.740894 253.475815
753 249.782242 -3.760534 -42.949703 18.144459 44.375008 -11.740894 253.475815
754 249.782242 -3.760534 -42.949699 18.144459 44.375008 -11.740894 253.475815
[BN_SackDef04]
751 138.789810 -62.131496 -45.674511 146.059982 27.375723 -88.781555 158.773727
752 138.789810 -62.131496 -45.674511 146.059982 27.375723 -88.781555 158.773727
753 138.789810 -62.131496 -45.674511 146.059982 27.375723 -88.781555 158.773727
754 138.789810 -62.131496 -45.674511 146.059982 27.375723 -88.781555 158.773727
[BN_SackDef05]
751 118.790131 46.167221 -63.831322 0.155741 51.314110 90.605110 142.537521
752 118.790131 46.167221 -63.831322 0.155741 51.314110 90.605110 142.537521
753 118.790131 46.167221 -63.831322 0.155741 51.314110 90.605110 142.537521
754 118.790131 46.167221 -63.831322 0.155741 51.314110 90.605110 142.537521
[BN_SackDef06]
751 118.790138 46.167294 63.831135 152.058487 -51.314072 90.605019 142.537460
752 118.790138 46.167294 63.831135 152.058487 -51.314072 90.605019 142.537460
753 118.790138 46.167294 63.831135 152.058487 -51.314072 90.605019 142.537460
754 118.790138 46.167294 63.831135 152.058487 -51.314072 90.605019 142.537460
